# xmcd
#
# Track frame offsets:
#	183
#	10253
#	21478
#	33313
#	44948
#	56938
#	68355
#	79805
#	90858
#	101738
#	113915
#	122865
#	137353
#	151518
#	164948
#	180028
#	195370
#	206318
#	217268
#	232268
#	244048
#	257118
#	270473
#	282893
#	295473
#
# Disc length: 4123
#
# Revision: 3
# Processed by: cddbd v1.5.1PL0 Copyright (c) Steve Scherf et al.
# Submitted via: audiograbber 1.80
# Normalized: r2:DSETVAR1
#
DISCID=68101919
DTITLE=Various Artist - 25 Blues 'n' Soul Greats - volume 1
DYEAR=1900
DGENRE=
TTITLE0=John Lee Hooker - Dimples
TTITLE1=Howlin' Wolf - You'll Be Mine
TTITLE2=Little Walter - My Babe
TTITLE3=Billie Holiday - I Got It Bad And That Ain't Good
TTITLE4=Muddy Waters - The Stuff You Gotta Watch
TTITLE5=Sonny Boy Williamson - Born Blind
TTITLE6=John Lee Hooker - Boogie Chillum'
TTITLE7=B. B. King - Catfish Blues
TTITLE8=Howlin' Wolf - Who's Been Talkin'
TTITLE9=Roy Milton - Early In The Morning
TTITLE10=Billie Holiday - Please Don't Talk About Me When I'm Gone
TTITLE11=Leadbelly - Poor Howard Green Corn
TTITLE12=Little Walter - Sad Hours
TTITLE13=Elmore James - Dust My Broom
TTITLE14=Muddy Waters - Iodine In My Coffee
TTITLE15=John Lee Hooker - Tupelo
TTITLE16=Howlin' Wolf - Wang Dang Doodle
TTITLE17=Joe Simon - Say
TTITLE18=B. B. King - B. B. Boogie
TTITLE19=Billie Holiday - Nice Work If You Can Get It
TTITLE20=Sonny Boy Williamson - Work With Me
TTITLE21=Muddy Waters - Close To You
TTITLE22=John Lee Hooker - Drug Store Woman
TTITLE23=Howlin' Wolf - Little Baby
TTITLE24=Little Walter - You're So Fine
EXTD=Part of a collection called 100 Blues 'n' Soul Greats\n
EXTT0=
EXTT1=
EXTT2=
EXTT3=
EXTT4=
EXTT5=
EXTT6=
EXTT7=
EXTT8=
EXTT9=
EXTT10=
EXTT11=
EXTT12=
EXTT13=
EXTT14=
EXTT15=
EXTT16=
EXTT17=
EXTT18=
EXTT19=
EXTT20=
EXTT21=
EXTT22=
EXTT23=
EXTT24=
PLAYORDER=
